<svg id="Layer_1" data-name="Layer 1" xmlns="http://www.w3.org/2000/svg" viewBox="0 0 279.68 300.5"><defs><style>.cls-1{fill:none;}.cls-1,.cls-2{stroke:#000;stroke-miterlimit:10;}</style></defs><title>circlearr</title><path d="M77.5,76A76.5,76.5,0,1,1,1,152.5,76.59,76.59,0,0,1,77.5,76m0-1A77.5,77.5,0,1,0,155,152.5,77.5,77.5,0,0,0,77.5,75Z" transform="translate(0 -1.66)"/><path class="cls-1" d="M77.5,74.5c2.66-8.79,13-39.11,44-58,32-19.54,70.46-17.34,97-4s43.36,38.94,48,46c2.65,4,4.66,7.54,6,10" transform="translate(0 -1.66)"/><polygon class="cls-2" points="275.65 72.48 277.81 59.04 263.3 66.75 275.65 72.48"/><path class="cls-1" d="M279.2,229.15c-2.65,8.8-13,39.14-43.9,58.08-32,19.6-70.42,17.47-97,4.17s-43.43-38.86-48.08-45.91c-2.66-4-4.67-7.54-6-10" transform="translate(0 -1.66)"/><polygon class="cls-2" points="81.05 228.2 78.91 241.65 93.41 233.91 81.05 228.2"/></svg>